<svg width="35" height="35" viewBox="0 0 35 35" fill="none" xmlns="http://www.w3.org/2000/svg">
<path d="M17.5001 0.0728455C7.83516 0.0728455 0 7.90801 0 17.5729C0 26.2413 6.30913 33.4201 14.5814 34.8102V21.2239H10.3599V16.3348H14.5814V12.7297C14.5814 8.54681 17.1362 6.26737 20.8682 6.26737C22.6556 6.26737 24.1917 6.40056 24.6376 6.45922V10.8315L22.0492 10.8327C20.02 10.8327 19.6288 11.7968 19.6288 13.212V16.3323H24.4706L23.8391 21.2214H19.6288V34.9271C28.2873 33.8733 35 26.5116 35 17.5679C35 7.90801 27.1648 0.0728455 17.5001 0.0728455Z" fill="#E5CC49"/>
</svg>
