<svg width="35" height="35" viewBox="0 0 35 35" fill="none" xmlns="http://www.w3.org/2000/svg">
<circle cx="17.5" cy="17.5" r="17.5" fill="#E5CC49"/>
<g clip-path="url(#clip0)">
<path d="M17.746 30.0004C17.6633 30.0004 17.5805 30.0004 17.4971 30C15.5375 30.0047 13.7269 29.955 11.966 29.8478C10.3516 29.7495 8.87802 29.1916 7.70424 28.2345C6.57166 27.311 5.79823 26.0623 5.4055 24.5234C5.06371 23.1837 5.04559 21.8686 5.02823 20.5966C5.01564 19.6839 5.00267 18.6024 5 17.5026C5.00267 16.3983 5.01564 15.3168 5.02823 14.4042C5.04559 13.1323 5.06371 11.8172 5.4055 10.4773C5.79823 8.93846 6.57166 7.68972 7.70424 6.76618C8.87802 5.80907 10.3516 5.25117 11.9662 5.15295C13.7271 5.04594 15.5381 4.99597 17.5019 5.00074C19.4621 4.99654 21.2722 5.04594 23.033 5.15295C24.6474 5.25117 26.121 5.80907 27.2948 6.76618C28.4276 7.68972 29.2008 8.93846 29.5935 10.4773C29.9353 11.817 29.9535 13.1323 29.9708 14.4042C29.9834 15.3168 29.9966 16.3983 29.999 17.4981V17.5026C29.9966 18.6024 29.9834 19.6839 29.9708 20.5966C29.9535 21.8684 29.9355 23.1835 29.5935 24.5234C29.2008 26.0623 28.4276 27.311 27.2948 28.2345C26.121 29.1916 24.6474 29.7495 23.033 29.8478C21.3467 29.9504 19.6145 30.0004 17.746 30.0004ZM17.4971 28.0469C19.4249 28.0514 21.1949 28.0028 22.9144 27.8983C24.1351 27.8241 25.1935 27.4279 26.0606 26.7209C26.862 26.0672 27.414 25.1654 27.7011 24.0405C27.9856 22.9252 28.0021 21.7278 28.0179 20.5699C28.0303 19.6633 28.0433 18.5895 28.0459 17.5004C28.0433 16.4111 28.0303 15.3374 28.0179 14.4309C28.0021 13.2729 27.9856 12.0755 27.7011 10.9601C27.414 9.83511 26.862 8.93331 26.0606 8.27966C25.1935 7.5728 24.1351 7.17664 22.9144 7.10245C21.1949 6.99773 19.4249 6.94948 17.5017 6.95367C15.5743 6.9491 13.8041 6.99773 12.0847 7.10245C10.864 7.17664 9.80556 7.5728 8.93848 8.27966C8.13702 8.93331 7.58503 9.83511 7.29797 10.9601C7.0134 12.0755 6.99699 13.2727 6.98116 14.4309C6.96877 15.3382 6.9558 16.4126 6.95312 17.5026C6.9558 18.5879 6.96877 19.6625 6.98116 20.5699C6.99699 21.7278 7.0134 22.9252 7.29797 24.0405C7.58503 25.1654 8.13702 26.0672 8.93848 26.7209C9.80556 27.4277 10.864 27.8239 12.0847 27.8981C13.8041 28.0028 15.5747 28.0516 17.4971 28.0469ZM17.4506 23.6039C14.0853 23.6039 11.3471 20.8659 11.3471 17.5004C11.3471 14.1348 14.0853 11.3968 17.4506 11.3968C20.8161 11.3968 23.5541 14.1348 23.5541 17.5004C23.5541 20.8659 20.8161 23.6039 17.4506 23.6039ZM17.4506 13.35C15.1622 13.35 13.3002 15.2119 13.3002 17.5004C13.3002 19.7888 15.1622 21.6508 17.4506 21.6508C19.7392 21.6508 21.601 19.7888 21.601 17.5004C21.601 15.2119 19.7392 13.35 17.4506 13.35ZM24.2377 9.44372C23.4288 9.44372 22.7729 10.0995 22.7729 10.9086C22.7729 11.7177 23.4288 12.3734 24.2377 12.3734C25.0468 12.3734 25.7026 11.7177 25.7026 10.9086C25.7026 10.0995 25.0468 9.44372 24.2377 9.44372Z" fill="#05669D"/>
</g>
<defs>
<clipPath id="clip0">
<rect width="25" height="25" fill="white" transform="translate(5 5)"/>
</clipPath>
</defs>
</svg>
