<svg width="150" height="150" viewBox="0 0 150 150" fill="none" xmlns="http://www.w3.org/2000/svg">
<path d="M146.129 124.021H3.8707C1.73291 124.021 0 122.288 0 120.151V13.1466C0 11.371 1.43965 9.9313 3.21533 9.9313H146.784C148.56 9.9313 150 11.371 150 13.1466V120.151C150 122.288 148.267 124.021 146.129 124.021Z" fill="white"/>
<path d="M146.784 9.9313H133.438C135.214 9.9313 136.654 11.371 136.654 13.1466V110.622C136.654 113.632 134.213 116.073 131.203 116.073H3.8707C1.73291 116.073 0 114.34 0 112.202V120.151C0 122.288 1.73291 124.021 3.8707 124.021H146.129C148.267 124.021 150 122.288 150 120.151V13.1466C150 11.371 148.56 9.9313 146.784 9.9313Z" fill="#CCDFED"/>
<path d="M150 31.5787H0V13.1466C0 11.371 1.43965 9.9313 3.21533 9.9313H146.784C148.56 9.9313 150 11.371 150 13.1466V31.5787Z" fill="#397E9E"/>
<path d="M149.935 12.4986C149.892 12.2894 149.829 12.0873 149.747 11.8951C149.707 11.799 149.662 11.7053 149.612 11.6142C149.513 11.4319 149.397 11.2603 149.266 11.1015C149.102 10.9031 148.912 10.7273 148.706 10.5732C148.17 10.1722 147.506 9.93164 146.785 9.93164H133.438C135.214 9.93164 136.654 11.3713 136.654 13.147V31.5791H150V13.1467C150 12.9246 149.977 12.7081 149.935 12.4986Z" fill="#2D5872"/>
<path d="M134.619 105.454L99.4474 98.3629C98.8989 98.2524 98.4149 98.7361 98.5257 99.2846L105.616 134.456C105.762 135.177 106.73 135.318 107.075 134.669L113.248 123.046L129.839 139.637C130.414 140.213 131.348 140.213 131.924 139.637L139.8 131.76C140.376 131.185 140.376 130.251 139.8 129.676L123.209 113.085L134.832 106.912C135.48 106.567 135.339 105.599 134.619 105.454Z" fill="#FFB125"/>
<path d="M71.9574 106.771H19.5726C17.4363 106.771 15.7046 105.04 15.7046 102.903V50.5186C15.7046 48.3822 17.4363 46.6505 19.5726 46.6505H71.9571C74.0934 46.6505 75.8252 48.3822 75.8252 50.5186V102.903C75.8255 105.039 74.0935 106.771 71.9574 106.771Z" fill="#397E9E"/>
<path d="M71.9574 46.6505H62.4793V97.0153C62.4793 99.1516 60.7476 100.883 58.6113 100.883H15.7046V102.903C15.7046 105.04 17.4363 106.771 19.5726 106.771H71.9571C74.0934 106.771 75.8252 105.04 75.8252 102.903V50.5186C75.8255 48.3822 74.0937 46.6505 71.9574 46.6505Z" fill="#2D5872"/>
<path d="M131.359 52.1562H93.5572C92.3376 52.1562 91.3491 51.1677 91.3491 49.9481C91.3491 48.7288 92.3376 47.74 93.5572 47.74H131.359C132.579 47.74 133.567 48.7285 133.567 49.9481C133.567 51.1674 132.579 52.1562 131.359 52.1562Z" fill="#237398" fill-opacity="0.64"/>
<path d="M131.359 68.1913H93.5572C92.3376 68.1913 91.3491 67.2028 91.3491 65.9832C91.3491 64.7639 92.3376 63.7751 93.5572 63.7751H131.359C132.579 63.7751 133.567 64.7636 133.567 65.9832C133.567 67.2028 132.579 68.1913 131.359 68.1913Z" fill="#237398" fill-opacity="0.64"/>
<path d="M131.359 84.2265H93.5572C92.3376 84.2265 91.3491 83.238 91.3491 82.0184C91.3491 80.7991 92.3376 79.8103 93.5572 79.8103H131.359C132.579 79.8103 133.567 80.7988 133.567 82.0184C133.567 83.2377 132.579 84.2265 131.359 84.2265Z" fill="#237398" fill-opacity="0.64"/>
<path d="M63.8421 73.2555L47.408 55.0962C47.4069 55.0947 47.4054 55.0932 47.4039 55.0918L47.4019 55.0894C47.3758 55.0607 47.3477 55.0352 47.3207 55.0083C47.2958 54.9834 47.2727 54.9576 47.2463 54.9339C47.246 54.9336 47.2457 54.9333 47.2451 54.933C47.0773 54.7809 46.8912 54.659 46.6938 54.5676C46.6686 54.5559 46.6425 54.5471 46.6167 54.5363C46.5766 54.5196 46.5367 54.5017 46.4957 54.4874C46.4494 54.4713 46.4023 54.4587 46.3554 54.4455C46.334 54.4396 46.3132 54.432 46.2918 54.4267C46.2438 54.415 46.1949 54.4068 46.1462 54.3983C46.1251 54.3945 46.1043 54.3892 46.0829 54.3863C46.0375 54.3799 45.9918 54.3766 45.9461 54.3728C45.9212 54.3708 45.8963 54.367 45.8711 54.3658C45.831 54.3637 45.7909 54.3652 45.751 54.3655C45.7202 54.3658 45.6895 54.3643 45.6584 54.3658C45.6244 54.3675 45.5905 54.3722 45.5565 54.3755C45.5199 54.379 45.4832 54.381 45.4466 54.3863C45.4159 54.3907 45.3857 54.398 45.3552 54.4039C45.316 54.4112 45.2767 54.4174 45.2377 54.4267C45.2046 54.4349 45.1721 54.4461 45.139 54.4557C45.1038 54.4663 45.0681 54.4751 45.0332 54.4871C44.9785 54.5061 44.9248 54.529 44.8715 54.5524C44.8595 54.5577 44.8469 54.5618 44.8352 54.5674C44.6374 54.6588 44.4511 54.7809 44.2829 54.9333C44.2826 54.9336 44.2827 54.9336 44.2824 54.9339C44.2621 54.9523 44.2446 54.9722 44.2249 54.9913C44.1918 55.0235 44.1581 55.0549 44.1268 55.0894L44.1247 55.0918C44.1233 55.0932 44.1221 55.0947 44.1206 55.0962L27.6866 73.2555C26.8683 74.1596 26.9381 75.5562 27.8422 76.3744C28.2649 76.7568 28.7946 76.9451 29.3231 76.9451C29.9252 76.9451 30.5252 76.7002 30.9608 76.2189L45.7639 59.8616L60.567 76.2189C61.0029 76.7005 61.6026 76.9451 62.2047 76.9451C62.7332 76.9451 63.2632 76.7568 63.6856 76.3744C64.5909 75.5562 64.6603 74.1596 63.8421 73.2555Z" fill="white"/>
<path d="M24.4126 74.7371L29.519 94.7588C29.8765 96.1598 31.138 97.14 32.5838 97.14H58.9468C60.3926 97.14 61.6541 96.1598 62.0115 94.7588L67.118 74.7371H24.4126Z" fill="#FFB125"/>
<path d="M65.9862 79.6184H25.5435C23.8987 79.6184 22.5654 78.2851 22.5654 76.6404V75.8433C22.5654 74.1985 23.8987 72.8652 25.5435 72.8652H65.9865C67.6313 72.8652 68.9646 74.1985 68.9646 75.8433V76.6404C68.9646 78.2851 67.6313 79.6184 65.9862 79.6184Z" fill="#FEE570"/>
<path d="M20.4228 25.1847C22.8693 25.1847 24.8525 23.2015 24.8525 20.755C24.8525 18.3086 22.8693 16.3253 20.4228 16.3253C17.9764 16.3253 15.9932 18.3086 15.9932 20.755C15.9932 23.2015 17.9764 25.1847 20.4228 25.1847Z" fill="#FEE570"/>
<path d="M36.1728 25.1847C38.6193 25.1847 40.6025 23.2015 40.6025 20.755C40.6025 18.3086 38.6193 16.3253 36.1728 16.3253C33.7264 16.3253 31.7432 18.3086 31.7432 20.755C31.7432 23.2015 33.7264 25.1847 36.1728 25.1847Z" fill="#FEE570"/>
<path d="M51.9258 25.1847C54.3722 25.1847 56.3555 23.2015 56.3555 20.755C56.3555 18.3086 54.3722 16.3253 51.9258 16.3253C49.4793 16.3253 47.4961 18.3086 47.4961 20.755C47.4961 23.2015 49.4793 25.1847 51.9258 25.1847Z" fill="#FEE570"/>
<path d="M139.799 131.761C140.375 131.185 140.375 130.252 139.799 129.676L123.208 113.085L134.831 106.912C135.48 106.567 135.339 105.599 134.619 105.454L99.4474 98.363C99.1731 98.3076 98.915 98.401 98.7393 98.5768L135.861 135.699L139.799 131.761Z" fill="#F8D470"/>
</svg>
