<svg width="150" height="150" viewBox="0 0 150 150" fill="none" xmlns="http://www.w3.org/2000/svg">
<g clip-path="url(#clip0)">
<path d="M142.102 7.37283H25.5641C24.7848 7.37283 24.0854 7.85067 23.8019 8.57635L17.6665 24.2827V125.383C17.6665 128.185 19.9385 130.457 22.7407 130.457H144.926C147.729 130.457 150 128.185 150 125.383V24.2827L143.865 8.57635C143.581 7.85067 142.882 7.37283 142.102 7.37283Z" fill="#237398" fill-opacity="0.82"/>
<path d="M144.926 130.457H22.7407C19.9382 130.457 17.6665 128.185 17.6665 125.383V24.283H150V125.383C150 128.185 147.728 130.457 144.926 130.457Z" fill="#237398" fill-opacity="0.25"/>
<path d="M136.673 24.2827V115.649C136.673 120.201 132.983 123.891 128.431 123.891H22.7407C19.9382 123.891 17.6665 121.62 17.6665 118.817V125.383C17.6665 128.185 19.9385 130.457 22.7407 130.457H144.926C147.729 130.457 150 128.185 150 125.383V24.2827H136.673Z" fill="#2D5872"/>
<path d="M92.5383 72.3541C93.3574 75.0193 91.8598 77.8186 89.2225 78.6351L67.3632 85.4006L68.6522 85.9262L83.2392 91.8741L107.384 101.719C110.314 102.914 111.72 106.257 110.526 109.186C109.331 112.116 105.988 113.522 103.058 112.328L108.658 114.611C111.587 115.806 112.994 119.149 111.799 122.078C110.605 125.008 107.261 126.414 104.332 125.22L98.7328 122.937C101.628 124.117 103.036 127.397 101.915 130.301C100.759 133.297 97.2612 134.709 94.2876 133.497L89.6183 131.593C92.5477 132.787 93.9542 136.131 92.7598 139.06C91.5653 141.989 88.222 143.396 85.2926 142.201L43.0025 124.958C38.8471 123.263 35.1929 120.537 32.3854 117.036C29.5778 113.535 25.9236 110.808 21.7682 109.114L4.23193 101.963L16.4889 71.9036L31.6696 78.0934C36.7512 80.1656 86.589 68.9414 86.589 68.9414C89.151 68.4038 91.7695 69.8519 92.5383 72.3541Z" fill="#FED9A8"/>
<path d="M92.5383 72.3541C93.3574 75.0193 91.8598 77.8186 89.2225 78.6351L67.3632 85.4006L68.6522 85.9262L83.2392 91.8741L107.384 101.719C110.314 102.914 111.72 106.257 110.526 109.186C109.331 112.116 105.988 113.522 103.058 112.328L108.658 114.611C111.587 115.806 112.994 119.149 111.799 122.078C110.605 125.008 107.261 126.414 104.332 125.22L98.7328 122.937C101.628 124.117 103.036 127.397 101.915 130.301C100.759 133.297 97.2612 134.709 94.2876 133.497L89.6183 131.593C92.5477 132.787 93.9542 136.131 92.7598 139.06C91.5653 141.989 88.222 143.396 85.2926 142.201L43.0025 124.958C38.8471 123.263 35.1929 120.537 32.3854 117.036C29.5778 113.535 25.9236 110.808 21.7682 109.114L4.23193 101.963L16.4889 71.9036L31.6696 78.0934C36.7512 80.1656 86.589 68.9414 86.589 68.9414C89.151 68.4038 91.7695 69.8519 92.5383 72.3541Z" fill="#FED9A8"/>
<path d="M92.5383 72.3541C93.3574 75.0193 91.8598 77.8186 89.2225 78.6351L67.3632 85.4006L68.6522 85.9262L83.2392 91.8741L107.384 101.719C110.314 102.914 111.72 106.257 110.526 109.186C109.331 112.116 105.988 113.522 103.058 112.328L108.658 114.611C111.587 115.806 112.994 119.149 111.799 122.078C110.605 125.008 107.261 126.414 104.332 125.22L98.7328 122.937C101.628 124.117 103.036 127.397 101.915 130.301C100.759 133.297 97.2612 134.709 94.2876 133.497L89.6183 131.593C92.5477 132.787 93.9542 136.131 92.7598 139.06C91.5653 141.989 88.222 143.396 85.2926 142.201L43.0025 124.958C38.8471 123.263 35.1929 120.537 32.3854 117.036C29.5778 113.535 25.9236 110.808 21.7682 109.114L4.23193 101.963L16.4889 71.9036L31.6696 78.0934C36.7512 80.1656 86.589 68.9414 86.589 68.9414C89.151 68.4038 91.7695 69.8519 92.5383 72.3541Z" fill="#FED9A8"/>
<path d="M92.7645 139.048C92.7719 139.029 92.7792 139.012 92.7862 138.993C92.7892 138.986 92.7918 138.979 92.7947 138.972C92.8006 138.957 92.8064 138.942 92.812 138.927C92.8152 138.918 92.8184 138.909 92.8217 138.901C92.8267 138.887 92.8316 138.874 92.8366 138.86C92.8404 138.85 92.8439 138.84 92.8475 138.83C92.8519 138.818 92.8562 138.806 92.8603 138.794C92.8639 138.784 92.8674 138.773 92.8709 138.763C92.875 138.751 92.8794 138.739 92.8835 138.726C92.887 138.716 92.8905 138.705 92.8943 138.694C92.8981 138.683 92.9017 138.672 92.9055 138.66C92.909 138.649 92.9128 138.638 92.9163 138.627C92.9198 138.616 92.9236 138.604 92.9271 138.593C92.9304 138.582 92.9339 138.571 92.9371 138.56C92.9406 138.548 92.9444 138.536 92.9479 138.524C92.9512 138.514 92.9544 138.503 92.9573 138.492C92.9605 138.481 92.9638 138.47 92.967 138.459C92.9705 138.447 92.9737 138.435 92.9772 138.423C92.9802 138.413 92.9828 138.403 92.9857 138.392C92.989 138.38 92.9922 138.368 92.9954 138.356C92.998 138.346 93.001 138.335 93.0036 138.325C93.0068 138.313 93.0098 138.301 93.013 138.289C93.0156 138.278 93.0182 138.268 93.0206 138.257C93.0235 138.245 93.0265 138.233 93.0294 138.221C93.0314 138.212 93.0338 138.203 93.0358 138.193C93.0391 138.18 93.0423 138.166 93.0452 138.153C93.0464 138.148 93.0476 138.142 93.0487 138.137C93.061 138.082 93.0725 138.027 93.083 137.972C93.0842 137.966 93.0853 137.96 93.0865 137.954C93.0894 137.938 93.0924 137.922 93.0953 137.906C93.0965 137.9 93.0977 137.893 93.0988 137.887C93.1018 137.871 93.1047 137.854 93.1073 137.837C93.1082 137.832 93.1091 137.827 93.11 137.821C93.1126 137.805 93.1155 137.788 93.1179 137.771C93.1187 137.765 93.1196 137.76 93.1205 137.754C93.1231 137.737 93.1258 137.72 93.1281 137.702C93.1287 137.698 93.1296 137.693 93.1302 137.688C93.1328 137.67 93.1351 137.651 93.1375 137.633C93.1378 137.63 93.1384 137.627 93.1387 137.624C93.141 137.605 93.1436 137.585 93.1457 137.566C93.146 137.563 93.1463 137.561 93.1466 137.559C93.1489 137.539 93.1513 137.519 93.1533 137.499C93.1536 137.497 93.1536 137.496 93.1539 137.494C93.156 137.473 93.158 137.452 93.1601 137.432C93.1601 137.431 93.1601 137.43 93.1603 137.43C93.371 135.18 92.2243 132.961 90.1779 131.859C90.146 131.841 90.1138 131.826 90.0818 131.81C89.9383 131.736 89.7921 131.666 89.64 131.603C89.5891 131.582 89.5372 131.56 89.4874 131.54L68.0523 122.8C66.9191 125.579 68.2457 128.752 71.0204 129.897L88.0214 136.914C89.8158 137.646 91.0457 139.25 91.4494 141.006C91.9999 140.471 92.4514 139.816 92.7596 139.06C92.7613 139.056 92.7628 139.052 92.7645 139.048Z" fill="#F4C892"/>
<path d="M109.832 110.426C110.108 110.051 110.342 109.637 110.526 109.187C111.72 106.257 110.314 102.914 107.384 101.719L83.2393 91.8741L68.6523 85.9263L67.3633 85.4007C70.6182 91.0392 75.6572 95.434 81.6859 97.8923L107.384 108.371C108.283 108.738 109.205 109.637 109.832 110.426Z" fill="#F4C892"/>
<path d="M111.876 117.95C111.86 117.907 111.844 117.864 111.827 117.822C111.819 117.8 111.81 117.779 111.802 117.758C111.784 117.715 111.766 117.673 111.748 117.631C111.694 117.505 111.634 117.381 111.57 117.259C111.539 117.198 111.506 117.138 111.472 117.078C111.449 117.038 111.426 116.999 111.402 116.959C111.379 116.92 111.355 116.88 111.33 116.842C111.305 116.803 111.28 116.764 111.255 116.726C111.012 116.363 110.727 116.026 110.402 115.724C110.385 115.708 110.368 115.692 110.351 115.677C110.247 115.582 110.14 115.492 110.028 115.405C110.01 115.39 109.991 115.376 109.972 115.361C109.935 115.332 109.897 115.304 109.859 115.277C109.84 115.263 109.82 115.249 109.801 115.235C109.452 114.99 109.07 114.779 108.658 114.611L103.059 112.328H103.059L76.7045 101.582C75.5382 104.442 76.9146 107.706 79.7769 108.868L108.659 120.589C109.821 121.063 110.763 121.92 111.379 122.912C111.539 122.65 111.681 122.372 111.8 122.078C112.024 121.529 112.157 120.965 112.205 120.404C112.209 120.357 112.212 120.31 112.215 120.263C112.263 119.469 112.143 118.682 111.876 117.95Z" fill="#F4C892"/>
<path d="M14.6431 67.4824C15.0987 66.3653 16.3734 65.8289 17.4905 66.2845L29.3332 71.1135C30.4503 71.569 30.9867 72.8438 30.5311 73.9608L16.0503 109.475C15.5947 110.592 14.32 111.129 13.2029 110.673L1.36024 105.844C0.243145 105.388 -0.293281 104.114 0.162286 102.997L14.6431 67.4824Z" fill="#2D5872"/>
<path d="M29.3337 71.1135L24.2246 69.0302L10.7099 102.175C10.2544 103.292 8.97967 103.828 7.86258 103.373L1.12899 100.627L0.162774 102.997C-0.292792 104.114 0.243634 105.388 1.36072 105.844L13.2034 110.673C14.3205 111.129 15.5952 110.592 16.0508 109.475L30.5319 73.9608C30.9869 72.8437 30.4508 71.5687 29.3337 71.1135Z" fill="#1D4859"/>
<path d="M94.9413 7.37283H72.7249L68.812 24.283V60.0017C68.812 60.977 69.9637 61.4953 70.6935 60.8484L83.0828 49.8726C83.5111 49.4932 84.1551 49.4932 84.5831 49.8726L96.9725 60.8484C97.7025 61.4953 98.8539 60.977 98.8539 60.0017V24.2827L94.9413 7.37283Z" fill="#F8D470"/>
<path d="M96.9725 60.8484L84.5831 49.8727C84.1548 49.4933 83.5108 49.4933 83.0828 49.8727L70.6935 60.8484C69.9634 61.495 68.812 60.9768 68.812 60.0018V24.283H98.8542V60.0018C98.8539 60.9771 97.7025 61.4953 96.9725 60.8484Z" fill="#FFB125"/>
<path d="M101.536 131.092C101.665 130.87 101.78 130.636 101.88 130.391C101.882 130.384 101.885 130.376 101.888 130.369C101.895 130.352 101.902 130.334 101.909 130.316C101.914 130.304 101.919 130.292 101.923 130.279C101.926 130.272 101.929 130.264 101.932 130.256C101.938 130.241 101.943 130.226 101.949 130.211C101.952 130.204 101.955 130.196 101.957 130.189C101.963 130.174 101.968 130.158 101.974 130.143C101.976 130.136 101.979 130.129 101.981 130.122C101.986 130.107 101.991 130.092 101.997 130.076C101.999 130.069 102.002 130.061 102.004 130.054C102.009 130.041 102.013 130.027 102.018 130.014C102.02 130.005 102.024 129.996 102.027 129.986C102.033 129.965 102.04 129.943 102.047 129.922C102.05 129.911 102.054 129.9 102.057 129.888C102.06 129.878 102.063 129.867 102.066 129.857C102.071 129.843 102.074 129.829 102.078 129.816C102.081 129.808 102.083 129.799 102.085 129.791C102.089 129.778 102.093 129.764 102.096 129.751C102.099 129.742 102.101 129.733 102.104 129.724C102.107 129.711 102.111 129.698 102.115 129.684C102.117 129.676 102.119 129.667 102.121 129.659C102.125 129.644 102.129 129.63 102.132 129.615C102.134 129.609 102.135 129.602 102.137 129.595C102.141 129.579 102.145 129.564 102.148 129.548C102.15 129.542 102.151 129.536 102.153 129.53C102.156 129.514 102.16 129.498 102.163 129.482C102.165 129.476 102.166 129.471 102.167 129.465C102.171 129.449 102.174 129.432 102.178 129.415C102.179 129.412 102.179 129.408 102.18 129.404C102.189 129.364 102.197 129.324 102.204 129.284C102.691 126.667 101.294 123.981 98.7331 122.937L72.3785 112.19C71.2567 114.942 72.5847 118.081 75.3407 119.192L98.7331 128.62C99.9512 129.117 100.922 130.035 101.536 131.092Z" fill="#F4C892"/>
</g>
<defs>
<clipPath id="clip0">
<rect width="150" height="150" fill="white"/>
</clipPath>
</defs>
</svg>
