<svg width="150" height="150" viewBox="0 0 150 150" fill="none" xmlns="http://www.w3.org/2000/svg">
<path d="M128.943 39.535H8.04932C3.60381 39.535 0 43.1391 0 47.5843V134.183C0 138.628 3.60381 142.232 8.04932 142.232H133.256C137.702 142.232 141.306 138.628 141.306 134.183V51.898C141.306 45.07 135.771 39.535 128.943 39.535Z" fill="#237398" fill-opacity="0.25"/>
<path d="M126.213 75.9899H13.5368C11.7312 75.9899 10.2676 74.5263 10.2676 72.7207V11.0373C10.2676 9.23174 11.7312 7.76807 13.5368 7.76807H126.213C128.019 7.76807 129.483 9.23174 129.483 11.0373V41.879V72.7207C129.483 74.5263 128.019 75.9899 126.213 75.9899Z" fill="#397E9E"/>
<path d="M126.213 7.76807H112.931C114.736 7.76836 116.199 9.23174 116.199 11.0373V72.7207C116.199 74.5263 114.736 75.9899 112.93 75.9899H126.213C128.018 75.9899 129.482 74.5263 129.482 72.7207V11.0373C129.482 9.23174 128.019 7.76807 126.213 7.76807Z" fill="#2D5872"/>
<path d="M129.483 19.0605H10.2686V31.6368H129.483V19.0605Z" fill="#F8D470"/>
<path d="M129.483 19.0605H116.2V31.6368H129.483V19.0605Z" fill="#FFB125"/>
<path d="M87.99 59.5842C92.422 59.5842 96.0147 55.9914 96.0147 51.5595C96.0147 47.1276 92.422 43.5348 87.99 43.5348C83.5581 43.5348 79.9653 47.1276 79.9653 51.5595C79.9653 55.9914 83.5581 59.5842 87.99 59.5842Z" fill="#FEE570"/>
<path d="M110.437 59.5842C114.869 59.5842 118.462 55.9914 118.462 51.5595C118.462 47.1276 114.869 43.5348 110.437 43.5348C106.005 43.5348 102.413 47.1276 102.413 51.5595C102.413 55.9914 106.005 59.5842 110.437 59.5842Z" fill="#FEE570"/>
<path d="M0 47.5844V134.183C0 138.628 3.60381 142.232 8.04932 142.232H133.256C137.702 142.232 141.306 138.628 141.306 134.183V68.488C141.306 61.3887 135.55 55.634 128.452 55.634H8.04932C3.60381 55.6337 0 52.0299 0 47.5844Z" fill="#F8D470"/>
<path d="M8.04932 55.6337C3.60381 55.6337 0 52.0302 0 47.5844V55.6337H8.04932Z" fill="#FF901D"/>
<path d="M128.452 55.6337H115.169C122.268 55.6337 128.023 61.3887 128.023 68.4877V132.05C128.023 134.194 126.285 135.932 124.141 135.932H8.04932C3.60381 135.932 0 132.329 0 127.883V134.182C0 138.628 3.60381 142.232 8.04932 142.232H133.256C137.702 142.232 141.306 138.628 141.306 134.182V127.883V68.488C141.306 61.3887 135.55 55.6337 128.452 55.6337Z" fill="#FFB125"/>
<path d="M113.553 115.446H144.154C147.383 115.446 150 112.828 150 109.599V87.6279C150 84.3988 147.383 81.7814 144.154 81.7814H113.553C104.257 81.7814 96.7212 89.3174 96.7212 98.6136C96.7212 107.909 104.257 115.446 113.553 115.446Z" fill="#237398"/>
<path d="M144.154 81.7814H130.871C134.1 81.7814 136.718 84.399 136.718 87.6279V105.364C136.718 107.47 135.01 109.177 132.905 109.177H113.553C105.329 109.177 98.4863 103.277 97.0171 95.4791C96.8258 96.4951 96.7212 97.5416 96.7212 98.6133C96.7212 107.909 104.257 115.446 113.553 115.446H144.154C147.383 115.446 150 112.828 150 109.599V87.6279C150 84.3988 147.383 81.7814 144.154 81.7814Z" fill="#2D5872"/>
<path d="M115.632 106.343C119.901 106.343 123.362 102.882 123.362 98.6132C123.362 94.3441 119.901 90.8832 115.632 90.8832C111.363 90.8832 107.902 94.3441 107.902 98.6132C107.902 102.882 111.363 106.343 115.632 106.343Z" fill="#E6E6E6"/>
<path d="M0 127.398V131.793H141.306V127.398H0Z" fill="#FFB125"/>
<path d="M0 68.1146V72.5097H141.306V68.4882C141.306 68.3631 141.3 68.2391 141.296 68.1149L0 68.1146Z" fill="#FFB125"/>
</svg>
