<svg width="35" height="35" fill="none" xmlns="http://www.w3.org/2000/svg"><circle cx="17.5" cy="17.5" r="17.5" fill="#E5CC49"/><g clip-path="url(#clip0)"><path d="M17.746 30h-.249c-1.96.005-3.77-.045-5.531-.152-1.614-.098-3.088-.656-4.262-1.613-1.132-.924-1.906-2.173-2.298-3.712-.342-1.34-.36-2.654-.378-3.926-.012-.913-.025-1.995-.028-3.094.003-1.105.016-2.186.028-3.099.018-1.272.036-2.587.378-3.927.392-1.539 1.166-2.787 2.298-3.71 1.174-.958 2.648-1.516 4.262-1.614A87.095 87.095 0 0117.502 5c1.96-.004 3.77.045 5.531.152 1.614.098 3.088.656 4.262 1.613 1.133.924 1.906 2.172 2.298 3.711.342 1.34.36 2.655.378 3.927.012.913.026 1.994.028 3.094v.005c-.002 1.1-.016 2.18-.028 3.094-.018 1.271-.035 2.586-.378 3.926-.392 1.54-1.165 2.788-2.298 3.712-1.174.957-2.648 1.515-4.262 1.613a86.458 86.458 0 01-5.287.152zm-.249-1.953a85.325 85.325 0 005.417-.149c1.221-.074 2.28-.47 3.147-1.177.801-.654 1.353-1.556 1.64-2.68.285-1.116.301-2.313.317-3.471.012-.907.025-1.98.028-3.07a294.17 294.17 0 00-.028-3.07c-.016-1.157-.032-2.354-.317-3.47-.287-1.125-.839-2.027-1.64-2.68-.867-.707-1.926-1.103-3.147-1.178a85.336 85.336 0 00-5.412-.148 85.102 85.102 0 00-5.417.148c-1.221.075-2.28.47-3.147 1.178-.801.653-1.353 1.555-1.64 2.68-.285 1.115-.301 2.313-.317 3.47-.012.908-.025 1.983-.028 3.073.003 1.085.016 2.16.028 3.067.016 1.158.032 2.355.317 3.47.287 1.125.839 2.027 1.64 2.68.868.708 1.926 1.104 3.147 1.178 1.72.105 3.49.154 5.412.149zm-.046-4.443a6.11 6.11 0 01-6.104-6.104 6.11 6.11 0 016.104-6.103 6.11 6.11 0 016.103 6.103 6.11 6.11 0 01-6.103 6.104zm0-10.254a4.155 4.155 0 00-4.15 4.15 4.155 4.155 0 004.15 4.15 4.155 4.155 0 004.15-4.15 4.155 4.155 0 00-4.15-4.15zm6.787-3.906a1.465 1.465 0 100 2.93 1.465 1.465 0 000-2.93z" fill="#05669D"/></g><defs><clipPath id="clip0"><path fill="#fff" transform="translate(5 5)" d="M0 0h25v25H0z"/></clipPath></defs></svg>