<svg width="150" height="150" fill="none" xmlns="http://www.w3.org/2000/svg"><path d="M146.129 124.021H3.871A3.87 3.87 0 010 120.151V13.147A3.215 3.215 0 013.215 9.93h143.569A3.216 3.216 0 01150 13.147V120.15a3.87 3.87 0 01-3.871 3.87z" fill="#fff"/><path d="M146.784 9.931h-13.346a3.216 3.216 0 013.216 3.216v97.475a5.452 5.452 0 01-5.451 5.451H3.871A3.87 3.87 0 010 112.202v7.949a3.87 3.87 0 003.87 3.87h142.26a3.87 3.87 0 003.871-3.87V13.147a3.216 3.216 0 00-3.216-3.216z" fill="#CCDFED"/><path d="M150 31.579H0V13.147A3.215 3.215 0 013.215 9.93h143.569A3.216 3.216 0 01150 13.147v18.432z" fill="#397E9E"/><path d="M149.935 12.499a3.157 3.157 0 00-.323-.885 3.222 3.222 0 00-.346-.513 3.248 3.248 0 00-.56-.528 3.196 3.196 0 00-1.921-.641h-13.347a3.216 3.216 0 013.216 3.215v18.432H150V13.147c0-.222-.023-.439-.065-.648z" fill="#2D5872"/><path d="M134.619 105.454l-35.172-7.091a.782.782 0 00-.921.922l7.09 35.171c.146.721 1.114.862 1.459.213l6.173-11.623 16.591 16.591a1.474 1.474 0 002.085 0l7.876-7.877a1.473 1.473 0 000-2.084l-16.591-16.591 11.623-6.173c.648-.345.507-1.313-.213-1.458z" fill="#FFB125"/><path d="M71.957 106.771H19.573a3.867 3.867 0 01-3.868-3.868V50.519a3.868 3.868 0 013.868-3.868h52.384a3.868 3.868 0 013.868 3.868v52.384a3.868 3.868 0 01-3.868 3.868z" fill="#397E9E"/><path d="M71.957 46.65H62.48v50.365a3.868 3.868 0 01-3.868 3.868H15.705v2.02a3.867 3.867 0 003.868 3.868h52.384a3.868 3.868 0 003.868-3.868V50.519a3.868 3.868 0 00-3.868-3.868z" fill="#2D5872"/><path d="M131.359 52.156H93.557a2.208 2.208 0 110-4.416h37.802a2.208 2.208 0 110 4.416zm0 16.035H93.557a2.208 2.208 0 110-4.416h37.802a2.208 2.208 0 110 4.416zm0 16.036H93.557a2.208 2.208 0 110-4.417h37.802a2.208 2.208 0 110 4.416z" fill="#237398" fill-opacity=".64"/><path d="M63.842 73.255L47.408 55.096a.033.033 0 00-.004-.004l-.002-.003c-.026-.028-.054-.054-.081-.08-.025-.026-.048-.051-.075-.075v-.001a2.19 2.19 0 00-.552-.365c-.025-.012-.052-.02-.077-.032-.04-.016-.08-.034-.121-.049-.047-.016-.094-.028-.14-.041l-.064-.02a2.35 2.35 0 00-.146-.028l-.063-.012a2.05 2.05 0 00-.137-.013c-.025-.002-.05-.006-.075-.007-.04-.002-.08 0-.12 0-.03 0-.061-.002-.093 0a1.76 1.76 0 00-.102.01c-.036.003-.073.005-.11.01l-.09.018c-.04.007-.08.013-.118.023-.033.008-.066.02-.099.029l-.106.031a2.203 2.203 0 00-.162.065l-.036.015a2.19 2.19 0 00-.552.366c-.02.02-.038.04-.058.058-.033.032-.067.064-.098.098l-.002.003-.004.004-16.434 18.16a2.208 2.208 0 003.274 2.963l14.803-16.357 14.803 16.357a2.202 2.202 0 001.638.726 2.207 2.207 0 001.637-3.69z" fill="#fff"/><path d="M24.413 74.737l5.106 20.022a3.163 3.163 0 003.065 2.381h26.363c1.446 0 2.707-.98 3.064-2.381l5.107-20.022H24.413z" fill="#FFB125"/><path d="M65.986 79.618H25.543a2.978 2.978 0 01-2.978-2.978v-.797a2.978 2.978 0 012.979-2.978h40.443a2.978 2.978 0 012.978 2.978v.797a2.978 2.978 0 01-2.979 2.978zM20.423 25.185a4.43 4.43 0 100-8.86 4.43 4.43 0 000 8.86zm15.75 0a4.43 4.43 0 100-8.86 4.43 4.43 0 000 8.86zm15.753 0a4.43 4.43 0 100-8.86 4.43 4.43 0 000 8.86z" fill="#FEE570"/><path d="M139.799 131.761a1.474 1.474 0 000-2.085l-16.591-16.591 11.623-6.173c.649-.345.508-1.313-.212-1.458l-35.172-7.091a.776.776 0 00-.708.214l37.122 37.122 3.938-3.938z" fill="#F8D470"/></svg>