<svg width="150" height="150" fill="none" xmlns="http://www.w3.org/2000/svg"><g clip-path="url(#clip0)"><path d="M142.102 7.373H25.564c-.78 0-1.479.478-1.762 1.203l-6.136 15.707v101.1a5.074 5.074 0 005.075 5.074h122.185a5.074 5.074 0 005.074-5.074v-101.1l-6.135-15.707a1.893 1.893 0 00-1.763-1.203z" fill="#237398" fill-opacity=".82"/><path d="M144.926 130.457H22.741a5.074 5.074 0 01-5.075-5.074v-101.1H150v101.1a5.074 5.074 0 01-5.074 5.074z" fill="#237398" fill-opacity=".25"/><path d="M136.673 24.283v91.366a8.242 8.242 0 01-8.242 8.242H22.741a5.074 5.074 0 01-5.075-5.074v6.566a5.074 5.074 0 005.075 5.074h122.185a5.074 5.074 0 005.074-5.074v-101.1h-13.327z" fill="#2D5872"/><path d="M92.538 72.354a5.025 5.025 0 01-3.316 6.281l-21.859 6.766 1.29.525 14.586 5.948 24.145 9.845a5.729 5.729 0 11-4.326 10.609l5.6 2.283a5.728 5.728 0 01-4.326 10.609l-5.6-2.283a5.728 5.728 0 013.183 7.364c-1.156 2.996-4.654 4.408-7.627 3.196l-4.67-1.904a5.728 5.728 0 11-4.325 10.608l-42.29-17.243a26.379 26.379 0 01-10.618-7.922 26.37 26.37 0 00-10.617-7.922l-17.536-7.151 12.257-30.06 15.18 6.19c5.082 2.073 54.92-9.152 54.92-9.152 2.562-.537 5.18.91 5.95 3.413z" fill="#FED9A8"/><path d="M92.538 72.354a5.025 5.025 0 01-3.316 6.281l-21.859 6.766 1.29.525 14.586 5.948 24.145 9.845a5.729 5.729 0 11-4.326 10.609l5.6 2.283a5.728 5.728 0 01-4.326 10.609l-5.6-2.283a5.728 5.728 0 013.183 7.364c-1.156 2.996-4.654 4.408-7.627 3.196l-4.67-1.904a5.728 5.728 0 11-4.325 10.608l-42.29-17.243a26.379 26.379 0 01-10.618-7.922 26.37 26.37 0 00-10.617-7.922l-17.536-7.151 12.257-30.06 15.18 6.19c5.082 2.073 54.92-9.152 54.92-9.152 2.562-.537 5.18.91 5.95 3.413z" fill="#FED9A8"/><path d="M92.538 72.354a5.025 5.025 0 01-3.316 6.281l-21.859 6.766 1.29.525 14.586 5.948 24.145 9.845a5.729 5.729 0 11-4.326 10.609l5.6 2.283a5.728 5.728 0 01-4.326 10.609l-5.6-2.283a5.728 5.728 0 013.183 7.364c-1.156 2.996-4.654 4.408-7.627 3.196l-4.67-1.904a5.728 5.728 0 11-4.325 10.608l-42.29-17.243a26.379 26.379 0 01-10.618-7.922 26.37 26.37 0 00-10.617-7.922l-17.536-7.151 12.257-30.06 15.18 6.19c5.082 2.073 54.92-9.152 54.92-9.152 2.562-.537 5.18.91 5.95 3.413z" fill="#FED9A8"/><path d="M92.764 139.048l.022-.055.009-.021.017-.045.01-.026.015-.041.01-.03c.005-.012.01-.024.013-.036l.01-.031c.005-.012.01-.024.013-.037l.011-.032.011-.034.011-.033.011-.034.01-.033.01-.036a.557.557 0 00.01-.032l.01-.033.01-.036.009-.031.01-.036.008-.031.009-.036.008-.032.008-.036.007-.028.01-.04.003-.016.034-.165.004-.018.008-.048.004-.019.008-.05.003-.016.008-.05c0-.006.002-.011.003-.017l.007-.052.002-.014.008-.055v-.009l.008-.058v-.007l.007-.06v-.005l.007-.062v-.002a5.732 5.732 0 00-2.982-5.571c-.032-.018-.064-.033-.096-.049a5.833 5.833 0 00-.442-.207l-.153-.063-21.435-8.74a5.451 5.451 0 002.968 7.097l17.001 7.017c1.795.732 3.025 2.336 3.428 4.092a5.714 5.714 0 001.31-1.946l.005-.012zm17.068-28.622a5.73 5.73 0 00-2.448-8.707l-24.145-9.845-14.587-5.948-1.289-.525a29.32 29.32 0 0014.323 12.491l25.698 10.479c.899.367 1.821 1.266 2.448 2.055zm2.044 7.524a4.849 4.849 0 00-.049-.128l-.025-.064-.054-.127a5.277 5.277 0 00-.276-.553 7.372 7.372 0 00-.217-.352 5.679 5.679 0 00-1.227-1.321l-.056-.044a3.002 3.002 0 00-.113-.084l-.058-.042a5.8 5.8 0 00-1.143-.624l-5.599-2.283-26.355-10.746a5.587 5.587 0 003.073 7.286l28.882 11.721c1.162.474 2.104 1.331 2.72 2.323.16-.262.302-.54.421-.834a5.718 5.718 0 00.405-1.674l.01-.141a5.74 5.74 0 00-.339-2.313z" fill="#F4C892"/><path d="M14.643 67.482a2.184 2.184 0 012.848-1.198l11.842 4.83a2.184 2.184 0 011.198 2.847l-14.48 35.514a2.184 2.184 0 01-2.848 1.198L1.36 105.844a2.184 2.184 0 01-1.198-2.847l14.481-35.515z" fill="#2D5872"/><path d="M29.334 71.114l-5.11-2.084-13.514 33.145a2.185 2.185 0 01-2.847 1.198l-6.734-2.746-.966 2.37a2.184 2.184 0 001.198 2.847l11.842 4.829a2.184 2.184 0 002.848-1.198l14.48-35.514a2.185 2.185 0 00-1.197-2.847z" fill="#1D4859"/><path d="M94.941 7.373H72.725l-3.913 16.91v35.719c0 .975 1.152 1.493 1.882.846l12.389-10.975a1.131 1.131 0 011.5 0l12.39 10.975c.73.647 1.88.129 1.88-.846v-35.72l-3.912-16.91z" fill="#F8D470"/><path d="M96.972 60.848L84.584 49.873a1.131 1.131 0 00-1.5 0l-12.39 10.975c-.73.647-1.881.129-1.881-.846V24.283h30.042v35.719c0 .975-1.151 1.493-1.882.846z" fill="#FFB125"/><path d="M101.536 131.092a5.626 5.626 0 00.352-.723l.021-.053.014-.037a.558.558 0 00.009-.023l.017-.045a.195.195 0 00.008-.022l.017-.046.007-.021.016-.046.007-.022.014-.04.009-.028a1.57 1.57 0 01.02-.064l.01-.034.009-.031.012-.041.007-.025a.595.595 0 00.011-.04l.008-.027.011-.04.006-.025.011-.044.005-.02.011-.047.005-.018.01-.048a.105.105 0 00.004-.017l.011-.05.002-.011.024-.12a5.73 5.73 0 00-3.47-6.347L72.378 112.19a5.365 5.365 0 002.962 7.002l23.392 9.428c1.218.497 2.189 1.415 2.803 2.472z" fill="#F4C892"/></g><defs><clipPath id="clip0"><path fill="#fff" d="M0 0h150v150H0z"/></clipPath></defs></svg>