<svg width="150" height="150" fill="none" xmlns="http://www.w3.org/2000/svg"><path d="M128.943 39.535H8.049A8.05 8.05 0 000 47.585v86.598a8.05 8.05 0 008.05 8.049h125.206a8.05 8.05 0 008.05-8.049V51.898c0-6.828-5.535-12.363-12.363-12.363z" fill="#237398" fill-opacity=".25"/><path d="M126.213 75.99H13.537a3.27 3.27 0 01-3.27-3.27V11.038a3.27 3.27 0 013.27-3.269h112.676a3.27 3.27 0 013.27 3.27V72.72a3.27 3.27 0 01-3.27 3.269z" fill="#397E9E"/><path d="M126.213 7.768h-13.282a3.269 3.269 0 013.268 3.27V72.72a3.269 3.269 0 01-3.269 3.269h13.283a3.27 3.27 0 003.269-3.27V11.038a3.269 3.269 0 00-3.269-3.269z" fill="#2D5872"/><path d="M129.483 19.06H10.269v12.577h119.214V19.06z" fill="#F8D470"/><path d="M129.483 19.06H116.2v12.577h13.283V19.06z" fill="#FFB125"/><path d="M87.99 59.584a8.025 8.025 0 100-16.05 8.025 8.025 0 000 16.05zm22.447 0a8.025 8.025 0 100-16.05 8.025 8.025 0 000 16.05z" fill="#FEE570"/><path d="M0 47.584v86.599a8.05 8.05 0 008.05 8.049h125.206a8.05 8.05 0 008.05-8.049V68.488c0-7.1-5.756-12.854-12.854-12.854H8.049A8.05 8.05 0 010 47.584z" fill="#F8D470"/><path d="M8.05 55.634A8.05 8.05 0 010 47.584v8.05h8.05z" fill="#FF901D"/><path d="M128.452 55.634h-13.283c7.099 0 12.854 5.755 12.854 12.854v63.562a3.882 3.882 0 01-3.882 3.882H8.049A8.049 8.049 0 010 127.883v6.299a8.05 8.05 0 008.05 8.05h125.206a8.05 8.05 0 008.05-8.05V68.488c0-7.1-5.756-12.854-12.854-12.854z" fill="#FFB125"/><path d="M113.553 115.446h30.601a5.846 5.846 0 005.846-5.847V87.628a5.846 5.846 0 00-5.846-5.847h-30.601c-9.296 0-16.832 7.536-16.832 16.833 0 9.295 7.536 16.832 16.832 16.832z" fill="#237398"/><path d="M144.154 81.781h-13.283a5.847 5.847 0 015.847 5.847v17.736a3.813 3.813 0 01-3.813 3.813h-19.352c-8.224 0-15.067-5.9-16.536-13.698a16.917 16.917 0 00-.296 3.134c0 9.296 7.536 16.833 16.832 16.833h30.601a5.846 5.846 0 005.846-5.847V87.628a5.846 5.846 0 00-5.846-5.847z" fill="#2D5872"/><path d="M115.632 106.343a7.73 7.73 0 100-15.46 7.73 7.73 0 000 15.46z" fill="#E6E6E6"/><path d="M0 127.398v4.395h141.306v-4.395H0zm0-59.283v4.395h141.306v-4.022c0-.125-.006-.249-.01-.373H0z" fill="#FFB125"/></svg>